<svg xmlns="http://www.w3.org/2000/svg" width="2696" height="2720"><path style="fill:#2d2e2e;stroke:none" d="M0 0v2720h2696V0H0z"/><path style="fill:#23b372;stroke:none" d="M1230 151c-2.72 14.663-.57 30.308.83 45 2.09 21.952 3.62 45.018 4.16 67 1.08 44.078 5.04 87.98 6.97 132 2.19 49.943 3.13 100.274 7.87 150 2.78 29.205 3.08 58.727 5.08 88 .55 7.964-3.4 26.123 2.83 32.257 4.03 3.961 21.51.743 27.26.743 25.69 0 51.49.265 77 3.285 27.89 3.303 55.74 7.782 83 14.588 6.47 1.615 24.76 9.658 30.61 6.085 5.86-3.588 6.56-17.884 8.7-23.958 8.67-24.697 14.93-50.751 21.98-76 26.41-94.618 55.48-188.52 82.57-283 7.93-27.673 16.64-55.188 24.02-83 1.59-5.975 9.92-22.178 4.65-27.297-4.81-4.669-17.17-5.534-23.53-7.297-23.41-6.489-47.2-11.484-71-16.214-52.24-10.384-106.09-18.338-159.04-22.138-44.15-3.169-89.68-.054-133.96-.054m-187 564c-3.45-15.022-11.32-29.814-17.3-44-10.1-23.909-20.07-47.93-29.779-72A13537.782 13537.782 0 0 0 899 365c-12.704-29.881-24.501-60.159-37.28-90-3.705-8.652-7.525-27.61-14.998-33.393-5.279-4.085-16.567 3.615-21.722 5.814-20.332 8.676-40.23 18.446-60 28.332-67.754 33.882-132.417 75.314-192 122.037-14.262 11.184-27.95 23.039-42 34.471-4.592 3.736-14.517 9.862-16.124 15.828-1.848 6.859 12.48 18.224 16.548 22.911 18.744 21.595 38.432 42.38 57.152 64 64.188 74.132 131.433 145.721 196.558 219.039 16.9 19.026 33.862 37.991 50.817 56.965 4.846 5.423 12.557 18.528 20.049 20.025 4.841.968 9.743-5.69 13-8.439 11.11-9.374 22.512-18.267 34-27.166 26.89-20.831 56.726-39.334 87-54.82 17.35-8.874 36.22-15.813 53-25.604z"/><path style="fill:#9f9ea0;stroke:none" d="M1954 400c6.48-5.239 10.93-13.317 15.85-19.999 1.7-2.316 3.79-6.378 7.19-6.119 3.55.271 7.25 4.212 9.96 6.244 7.49 5.619 15.34 10.936 22.58 16.874 26.59 21.84 53.51 43.154 78.42 66.961 7.34 7.02 14.82 13.828 22 21.039 2.48 2.49 7.28 5.948 5.79 10-3.54 9.646-18.58 19.785-25.79 27-21.33 21.333-42.78 42.553-64.12 63.884C1969.71 642.056 1914.17 698.83 1858 755c-17.13 17.13-34.51 34.017-51.58 51.21-9.38 9.457-18.63 21.002-29.42 28.79 6.22.133 14.65-12.033 18.88-16.335 16.5-16.739 33.49-33.039 50.12-49.665 66.5-66.499 132.49-133.488 199-200l55-55c4.5-4.499 18.24-14.078 18.05-20.961-.13-4.752-7.99-9.979-11.05-13.039-10.58-10.574-21.33-21.393-32.91-30.87-24.43-19.993-47.16-41.963-73-60.269-5.88-4.164-17.55-17.226-25.08-16.399-7.71.848-18.46 21.166-22.01 27.538z"/><path style="fill:#f39120;stroke:none" d="M1755 857c11.58-6.967 21.11-19.81 30.65-29.349 19.33-19.333 39.02-38.316 58.35-57.651 60.55-60.546 121.86-120.743 181.12-182.537 21.06-21.967 43.35-42.932 64.88-64.463 7.49-7.491 22.93-17.92 26.53-28 1.48-4.115-2.99-7.439-5.53-10-7.17-7.223-14.66-14.019-22-21.039-26.1-24.945-54.01-49.045-83.04-70.537-6.3-4.667-21.84-20.897-29.87-19.962-6.7.781-14.07 16.524-17.89 21.538-17.44 22.868-33.09 47.058-50.43 70-57.73 76.369-111.22 156.003-168.14 233-15.65 21.164-30.7 42.783-46.15 64.089-4.41 6.086-16.08 17.185-16.4 24.896-.27 6.654 14.41 14.21 18.92 17.935 20.22 16.714 38.79 35.574 59 52.08z"/><path style="fill:#9f9ea0;stroke:none" d="m1953 401 1 1-1-1m-1 1 1 1-1-1m-.67 1.667.34.666-.34-.666M1950 405l1 1-1-1m-1 1 1 1-1-1m-.67 1.667.34.666-.34-.666M1947 409l1 1-1-1m-1 1-1 3 1-3m-1.67 3.667.34.666-.34-.666M1943 415l1 1-1-1m-1 1 1 1-1-1m-1 1-1 3 1-3m-2 3 1 1-1-1m-1 1 1 1-1-1m-.67 1.667.34.666-.34-.666M1936 424l1 1-1-1m-1 1 1 1-1-1m-.67 1.667.34.666-.34-.666m-1 2 .34.666-.34-.666M1932 430l1 1-1-1m-1 1 1 1-1-1m-.67 1.667.34.666-.34-.666M1929 434l1 1-1-1m-1 1 1 1-1-1m-1 2 1 1-1-1m-1 1 1 1-1-1m-.67 1.667.34.666-.34-.666M1924 441l1 1-1-1m-1 1-1 3 1-3m-2 3 1 1-1-1m-1 2 1 1-1-1m-1 1 1 1-1-1m-.67 1.667.34.666-.34-.666M1917 451l1 1-1-1m-1 1 1 1-1-1m-1 1-1 3 1-3m-2 3-1 3 1-3m-2 3 1 1-1-1m-1 1-1 3 1-3m-1.67 3.667.34.666-.34-.666M1907 465l1 1-1-1m-1 1 1 1-1-1m-1 1 1 1-1-1m-.67 1.667.34.666-.34-.666M1903 470l1 1-1-1m-.67 1.667.34.666-.34-.666M1901 473l1 1-1-1m-1 1-1 3 1-3m-1.67 3.667.34.666-.34-.666M1897 479l1 1-1-1m-1 1 1 1-1-1m-1 1 1 1-1-1m-.67 1.667.34.666-.34-.666M1893 484l1 1-1-1m-.67 1.667.34.666-.34-.666M1891 487l1 1-1-1m-1 1-1 3 1-3m-2 3 1 1-1-1m-1 2 1 1-1-1m-1 1 1 1-1-1m-1 1 1 1-1-1m-1 2 1 1-1-1m-1 1 1 1-1-1m-.67 1.667.34.666-.34-.666M1881 501l1 1-1-1m-1 1 1 1-1-1m-.67 1.667.34.666-.34-.666m-1 2 .34.666-.34-.666M1877 507l1 1-1-1m-1 1 1 1-1-1m-.67 1.667.34.666-.34-.666M1874 511l1 1-1-1m-1 1 1 1-1-1m-1 1-1 3 1-3m-2 3 1 1-1-1m-1 1 1 1-1-1m-.67 1.667.34.666-.34-.666M1867 520l-1 3 1-3m-2 3 1 1-1-1m-1 1-1 3 1-3m-1.67 3.667.34.666-.34-.666M1861 529l1 1-1-1m-1 1 1 1-1-1m-.67 1.667.34.666-.34-.666M1858 533l1 1-1-1m-1 1 1 1-1-1m-.67 1.667.34.666-.34-.666M1855 537l1 1-1-1m-1 1-1 3 1-3m-1.67 3.667.34.666-.34-.666M1851 543l1 1-1-1m-1 1 1 1-1-1m-1 1 1 1-1-1m-1 2 1 1-1-1m-1 1 1 1-1-1m-1 1 1 1-1-1m-.67 1.667.34.666-.34-.666M1844 552l-1 3 1-3m-1.67 3.667.34.666-.34-.666M1841 557l1 1-1-1m-1 1 1 1-1-1m-1 1 1 1-1-1m-1 1-2 4 2-4m-2.67 4.667.34.666-.34-.666M1834 566l1 1-1-1m-1 1 1 1-1-1m-.67 1.667.34.666-.34-.666M1831 570l1 1-1-1m-1 1-1 3 1-3m-2 3-2 4 2-4m-2.67 4.667.34.666-.34-.666M1824 580l1 1-1-1m-1 1 1 1-1-1m-.67 1.667.34.666-.34-.666M1821 584l1 1-1-1m-1 1 1 1-1-1m-.67 1.667.34.666-.34-.666M1818 588l1 1-1-1m-1 1-1 3 1-3m-2 3-2 4 2-4m-3 4 1 1-1-1m-1 1-1 3 1-3m-1.67 3.667.34.666-.34-.666M1808 602l1 1-1-1m-1 1 1 1-1-1m-.67 1.667.34.666-.34-.666M1805 606l1 1-1-1m-1 1 1 1-1-1m-.67 1.667.34.666-.34-.666M1802 610l1 1-1-1m-1 1-1 3 1-3m-1.67 3.667.34.666-.34-.666M1798 616l1 1-1-1m-1 1 1 1-1-1m-.67 1.667.34.666-.34-.666M1795 620l1 1-1-1m-1 1 1 1-1-1m-1 1-1 3 1-3m-2 3-1 3 1-3m-2 3-2 4 2-4m-3 4 1 1-1-1m-.67 1.667.34.666-.34-.666M1784 635l1 1-1-1m-1 1 1 1-1-1m-.67 1.667.34.666-.34-.666M1781 639l1 1-1-1m-.67 1.667.34.666-.34-.666M1779 642l1 1-1-1m-1 1-1 3 1-3m-2 3 1 1-1-1m-.67 1.667.34.666-.34-.666M1774 649l1 1-1-1m-1 1 1 1-1-1m-1 2 1 1-1-1m-1 1 1 1-1-1m-.67 1.667.34.666-.34-.666M1769 656l1 1-1-1m-1 1 1 1-1-1m-1 1-1 3 1-3m-1.67 3.667.34.666-.34-.666M1764 663l1 1-1-1m-1 1-1 3 1-3m-2 3 1 1-1-1m-1 1 1 1-1-1m-.67 1.667.34.666-.34-.666M1758 671l-2 4 2-4m-3 4-1 3 1-3m-2 3 1 1-1-1m-.67 1.667.34.666-.34-.666M1751 681l1 1-1-1m-1 1 1 1-1-1m-.67 1.667.34.666-.34-.666M1748 685l1 1-1-1m-1 1 1 1-1-1m-.67 1.667.34.666-.34-.666M1745 689l1 1-1-1m-1 1-1 3 1-3m-1.67 3.667.34.666-.34-.666M1741 695l1 1-1-1m-1 1 1 1-1-1m-.67 1.667.34.666-.34-.666M1738 699l1 1-1-1m-1 1 1 1-1-1m-.67 1.667.34.666-.34-.666M1735 703l1 1-1-1m-1 1-1 3 1-3m-1.67 3.667.34.666-.34-.666M1730 709v2l2-2h-2m-.67 2.667.34.666-.34-.666M1727 713v2l2-2h-2m-.67 2.667.34.666-.34-.666M1725 717l1 1-1-1m-1 1 1 1-1-1m-.67 1.667.34.666-.34-.666M1722 721l-2 4 2-4m-3 4-2 4 2-4m-2.67 4.667.34.666-.34-.666M1715 731l1 1-1-1m-1 1 1 1-1-1m-.67 1.667.34.666-.34-.666M1712 735l1 1-1-1m-1 1 1 1-1-1m-.67 1.667.34.666-.34-.666M1709 739l-2 4 2-4m-2.67 4.667.34.666-.34-.666M1705 745l1 1-1-1m-1 1 1 1-1-1m-.67 1.667.34.666-.34-.666M1702 749l1 1-1-1m-1 1 1 1-1-1m-.67 1.667.34.666-.34-.666M1699 753l-2 4 2-4z"/><path style="fill:#23b372;stroke:none" d="M141 1130c37.372 1.61 76.043 12.62 113 18.56 89.321 14.35 178.403 31.83 268 43.62 31.652 4.17 63.16 13.33 95 15.91 7.534.6 21.784 7.03 28.772 3.5 3.682-1.86 4.063-8.01 4.779-11.59 2.275-11.38 5.145-22.64 7.355-34 7.927-40.73 24.195-80.13 40.67-118 4.726-10.86 10.252-21.47 15.682-32 1.694-3.28 5.614-7.95 3.67-11.81-3.543-7.057-19.193-12.027-25.928-15.665-23.769-12.839-47.005-26.699-71-39.115-83.972-43.451-166.887-90.689-249-137.559-25.105-14.33-50.691-27.866-76-41.825-5.468-3.016-20.528-14.858-26.787-12.573-5.729 2.091-10.708 16.384-13.432 21.547-11.04 20.922-21.088 42.376-30.641 64-28.9 65.412-52.819 133.301-68.819 203-6.247 27.22-15.321 55.98-15.321 84z"/><path style="fill:#9f9ea0;stroke:none" d="m1696 757-1 2h2l-1-2m-1.67 2.667.34.666-.34-.666m-1 2 .34.666-.34-.666M1692 763l1 1-1-1m-1 1 1 1-1-1m-.67 1.667.34.666-.34-.666M1689 767l1 1-1-1m-1 1 1 1-1-1m-.67 1.667.34.666-.34-.666M1686 771l1 1-1-1m-1 1 1 1-1-1m-.67 1.667.34.666-.34-.666m-1 2 .34.666-.34-.666M1682 777l1 1-1-1m-1 1 1 1-1-1m-.67 1.667.34.666-.34-.666M1679 781l1 1-1-1m-1 1 1 1-1-1m-.67 1.667.34.666-.34-.666M1676 785c-.66 3.527-.13 5.17 3 7l-3-7m3 7 2 2v-2h-2m2.67 2.333.66.334-.66-.334m1.33.667 4 3-4-3m4 3 1 1-1-1m1 1 3 2-3-2m3 2 1 1-1-1m1 1 4 3-4-3m4 3 1 1-1-1m1 1 1 1-1-1m1.67 1.333.66.334-.66-.334m1.33.667 1 1-1-1m1 1 1 1-1-1m1 1 1 1-1-1m1.67 1.333.66.334-.66-.334m1.33.667 1 1-1-1m1 1 1 1-1-1m1 1 1 1-1-1m1.67 1.333.66.334-.66-.334m1.33.667v2h2l-2-2m2 2 1 1-1-1m1 1 1 1-1-1m1 1 1 1-1-1m1.67 1.333.66.334-.66-.334m1.33.667 1 1-1-1m1 1 1 1-1-1m1 1 1 1-1-1m1 1 4 3-4-3m4 3 1 1-1-1m1 1 1 1-1-1m1 1 1 1-1-1m1 1 1 1-1-1m1 1 2 2v-2h-2m2.67 2.333.66.334-.66-.334m1.33.667 1 1-1-1m1 1v2h2l-2-2m43 1 1 1-1-1m-41 1 1 1-1-1m39.67.333.66.334-.66-.334M1736 839l1 1-1-1m37.33.667.34.666-.34-.666M1737 840l1 1-1-1m1 1 1 1-1-1m33.67.333.66.334-.66-.334M1739 842l1 1-1-1m31.33.667.34.666-.34-.666M1740 843l1 1-1-1m1 1 3 3-3-3m28 0 1 1-1-1m-2 1v2l2-2h-2m-23 2 1 1-1-1m22 0 1 1-1-1m-21 1 2 2v-2h-2m19.67.333.66.334-.66-.334m-1.34 1.334.34.666-.34-.666M1747 850l1 1-1-1m1 1 1 1-1-1m13.67.333.66.334-.66-.334M1749 852l1 1-1-1m11.33.667.34.666-.34-.666M1750 853l1 1-1-1m1 1 1 1-1-1m8 0 1 1-1-1m-7 1 3 2-3-2m4 2 3-2-3 2m-611 256v1h6l-6-1m156 0v1h6l-6-1m-161.33 1.33.66.34-.66-.34z"/><path style="fill:#fdfdff;stroke:none" d="M1095 1271c-4.38 23.26-8.14 46.66-12.08 70-1.46 8.64-1.31 23.41-5.93 30.85-2.86 4.6-10.4 3.15-14.99 3.15-11.87 0-27.33-2.72-38 3.36-19.38 11.03-20.81 41.78-1 53.28 12.44 7.21 30.21 4.36 44 4.36-4.79 15.15-6.14 32.31-8.75 48-1.53 9.15-4.1 19.82-1.46 29 6.53 22.71 36.27 27.22 52.12 11.83 7.61-7.4 8.5-17.92 10.17-27.83 3.35-19.85 9.5-40.87 9.92-61h94a2227.9 2227.9 0 0 0-9.08 50c-1.58 9.3-4.06 18.75-.81 28 7.86 22.39 40.39 26.68 54.33 8 5.89-7.89 6.3-18.65 7.98-28 3.41-18.86 8.76-38.86 9.58-58 17.46 0 42.96 4.59 59-3.43 18.68-9.34 22.25-37.64 5.96-51.05-10.52-8.67-24.25-6.52-36.96-6.52-3.72 0-13.67 1.75-15.68-2.32-2.67-5.4 2.36-19.83 3.48-25.68 4.43-23.11 4.88-49.74 12.59-71.94 2.46-7.05 18.58-4.06 24.61-4.06 19.72 0 42.32-3.44 44.18-28 2.64-34.88-33.14-33-57.18-33 .68-15.92 4.95-32.28 7.59-48 1.5-8.96 3.86-18.09.89-27-7.98-23.93-42.48-28.93-56.01-7-9.55 15.47-9.27 41.26-12.22 59-.89 5.3-.71 18.78-5.56 21.97-5.52 3.62-19.22 1.03-25.69 1.03h-66c2.94-15.63 5.78-31.32 8.41-47 1.61-9.58 3.89-18.46.7-28-7.48-22.34-38.58-28.98-53.58-9.99-11.67 14.78-11.08 43.88-14.12 61.99-.97 5.8-.72 15.91-4.35 20.68-3.12 4.12-12.51 2.32-17.06 2.32-12.92 0-30.31-3.07-42 3.35-20.46 11.25-21.47 41.4-1 53.29 13.85 8.03 34.59 4.36 50 4.36z"/><path style="fill:#9f9ea0;stroke:none" d="m1155.67 1114.33.66.34-.66-.34M1295 1114v1h3l-3-1m16.67.33.66.34-.66-.34M1136 1115l1 1-1-1m22.67.33.66.34-.66-.34m134 0 .66.34-.66-.34m22 0 .66.34-.66-.34M794 1116v1h4l-4-1z"/><path style="fill:#fdfdff;stroke:none" d="M789 1370c32.355 0 67.101 3.56 99-2.46 35.592-6.71 67.182-27.45 90.711-54.54 44.809-51.59 53.059-146.68-15.711-183.22-9.78-5.19-20.082-9.26-31-11.32-34.988-6.6-73.501-2.46-109-2.46-17.229 0-34.293-1.4-47.961 11.18-16.837 15.5-16.886 46.56-20.453 67.82-9.237 55.06-19.104 110.06-29.01 165-7.147 39.64-13.854 79.36-21 119-2.67 14.8-8.758 34.39 5.464 45.39 17.571 13.58 44.453 2.06 53.266-16.39 7.413-15.52 8.02-36.17 10.944-53 4.864-28 12.511-56.68 14.75-85z"/><path style="fill:#9f9ea0;stroke:none" d="M914 1116v1h8l-8-1m220 0 1 1-1-1m27 0 1 1-1-1m129 0 1 1-1-1m27 0 1 1-1-1m-525.333 1.33.666.34-.666-.34M925 1117v1h4l-4-1m207 0 1 1-1-1m30 0 1 1-1-1m126 0 1 1-1-1m31 0 1 1-1-1m309.67.33.66.34-.66-.34M1965 1117v1h7l-7-1z"/><path style="fill:#fdfdff;stroke:none" d="M1972 1117.42c-123.87 16.27-183 154.57-183 266.58 0 75.47 48.52 157.09 133 146.71 39.79-4.88 72.68-27.61 99.07-56.71 51.56-56.84 84.39-143.54 75.22-221-6.78-57.24-31.66-119.77-94.29-133.58-9.51-2.09-20.3-3.27-30-2z"/><path style="fill:#9f9ea0;stroke:none" d="M1987 1117v1h6l-6-1m-1199 1 1 1-1-1m144.667.33.666.34-.666-.34M1130 1118l1 1-1-1m34 0 1 1-1-1m122 0 1 1-1-1m34 0 1 1-1-1m291 0v1h5l-5-1z"/><path style="fill:#fdfdff;stroke:none" d="M1552 1467c69.65-66.65 191.1-111.92 195.96-223 .69-15.82-.28-31.88-5.31-47-3.98-11.93-9.61-22.89-17.13-33-43.63-58.67-125.08-55.45-182.52-20.6-15.94 9.67-37.9 23.15-47.26 39.6-13.3 23.4 3.19 51.44 31.26 43.84 19.31-5.22 33.55-24.13 51-33.53 37.04-19.95 88.13-9.14 101.28 34.69 8.95 29.82-5.42 62.55-27.28 82.91-18.19 16.94-39.4 31.24-59 46.51-36.33 28.31-72.57 56.74-109 84.93-17.42 13.48-48.4 29.52-55.23 51.65-4.75 15.39 1.52 34.69 19.23 37.67 16.46 2.77 35.3.33 52 .33h151c8.97 0 18.42 1 27-2.09 22.67-8.17 38.93-44.54 13-59.38-7.71-4.41-16.47-3.53-25-3.53h-114z"/><path style="fill:#9f9ea0;stroke:none" d="M1639 1118v1h7l-7-1m319 0v1h3l-3-1m39.67.33.66.34-.66-.34M786 1119l1 1-1-1m150.667.33.666.34-.666-.34M1129 1119l1 1-1-1m37 0 1 1-1-1m119 0 1 1-1-1m37 0 1 1-1-1m282 0v1h4l-4-1m45 0v1h4l-4-1m304.67.33.66.34-.66-.34m49 0 .66.34-.66-.34M784 1120l1 1-1-1m156.667.33.666.34-.666-.34M1167 1120l1 1-1-1m432.67.33.66.34-.66-.34m56.33-.33v1h3l-3-1m292 0v1h3l-3-1m58.67.33.66.34-.66-.34M782 1121l1 1-1-1m162 0 1 1-1-1m224 0 1 1-1-1m426.67.33.66.34-.66-.34m67.33-.33 1 1-1-1m283 0 1 1-1-1m65 0 1 1-1-1m-1229 1 1 1-1-1m165.667.33.666.34-.666-.34M1125 1122l1 1-1-1m44 0 1 1-1-1m421.67.33.66.34-.66-.34m75 0 .66.34-.66-.34m276 0 .66.34-.66-.34m71.33-.33 1 1-1-1m-1234 1 1 1-1-1m170.667.33.666.34-.666-.34M1124 1123l1 1-1-1m46 0 1 1-1-1m156 0 1 1-1-1m260.67.33.66.34-.66-.34m82 0 .66.34-.66-.34m270 0 .66.34-.66-.34m77.33-.33 1 1-1-1m-1238 1 1 1-1-1m174 0 1 1-1-1m171 0 1 1-1-1m48 0 1 1-1-1m156 0 1 1-1-1m256.67.33.66.34-.66-.34m88.33-.33 1 1-1-1m264 0 1 1-1-1m83 0 1 1-1-1m-1065 1 1 1-1-1m374 0 1 1-1-1m252 0 1 1-1-1m94 0 1 1-1-1m259 0 1 1-1-1m88 0 1 1-1-1m-1065 1 1 1-1-1m166 0 1 1-1-1m156 0 1 1-1-1m299 0 1 1-1-1m100 0 1 1-1-1m253.67.33.66.34-.66-.34m92.33-.33 1 1-1-1m-1065 1 1 1-1-1m163 0 1 1-1-1m52 0 1 1-1-1m104 0 1 1-1-1m297 0 1 1-1-1m105 0 1 1-1-1m249 0 1 1-1-1m97 0 1 1-1-1m-1065 1 1 1-1-1m370 0 1 1-1-1m242 0 1 1-1-1m110 0 1 1-1-1m244 0 1 1-1-1m101 0 1 1-1-1m-1255 1 1 1-1-1m190 0 1 1-1-1m158 0 1 1-1-1m156 0 1 1-1-1m293 0 1 1-1-1m115 0 1 1-1-1m239.67.33.66.34-.66-.34M2029 1129l1 1-1-1m-1065 1 1 1-1-1m211 0 1 1-1-1m392 0 1 1-1-1m119 0 1 1-1-1m235 0 1 1-1-1m110 0 1 1-1-1m-912 1 1 1-1-1m156 0 1 1-1-1m57.33.67.34.66-.34-.66m232.34-.34.66.34-.66-.34M1919 1131l1 1-1-1m-1149 1 1 1-1-1m197 0 1 1-1-1m209.33.67.34.66-.34-.66M1562 1132l1 1-1-1m127 0 1 1-1-1m228 0 1 1-1-1m117 0 1 1-1-1m-1265 1 1 1-1-1m349.33.67.34.66-.34-.66M1274 1133l1 1-1-1m286 0 1 1-1-1m131 0 1 1-1-1m225 0 1 1-1-1m119 0 1 1-1-1m-1065 1 1 1-1-1m363 0 1 1-1-1m225 0 1 1-1-1m135 0 1 1-1-1m221 0 1 1-1-1m123 0 1 1-1-1m-860 1 1 1-1-1m379 0 1 1-1-1m139 0 1 1-1-1m217 0 1 1-1-1m126 0 1 1-1-1m-1271 1 1 1-1-1m206 0 1 1-1-1m300 0v3h1l-1-3m61 0v3h1l-1-3m220 0 1 1-1-1m356 0 1 1-1-1m-792.67 1.67.34.66-.34-.66M1552 1137l1 1-1-1m146 0 1 1-1-1m211 0 1 1-1-1m132 0 1 1-1-1m-1275 1 1 1-1-1m412 0v3h1l-1-3m521 0 1 1-1-1m208 0 1 1-1-1m135 0 1 1-1-1m-1065 1 1 1-1-1m572 0 1 1-1-1m-784 1 1 1-1-1m213 0 1 1-1-1m569 0 1 1-1-1m155 0 1 1-1-1m202 0 1 1-1-1m141 0 1 1-1-1m-1066 1 1 1-1-1m293 0v3h1l-1-3m274 0 1 1-1-1m157 0 1 1-1-1m199 0 1 1-1-1m144 0 1 1-1-1m-1282 1 1 1-1-1m216 0 1 1-1-1m136 0v3h1l-1-3m428 0 1 1-1-1m357 0 1 1-1-1m146 0 1 1-1-1m-1066 1 1 1-1-1m354 0 1 1-1-1m207 0 1 1-1-1m164 0 1 1-1-1m342 0 1 1-1-1m-507 1 1 1-1-1m166 0 1 1-1-1m191 0 1 1-1-1m-1135 1 1 1-1-1m220 0 1 1-1-1m556 0 1 1-1-1m169 0 1 1-1-1m189 0 1 1-1-1m-913 1 1 1-1-1m725 0 1 1-1-1m186 0 1 1-1-1m-910 1 1 1-1-1m286 0v3h1l-1-3m265 0 1 1-1-1m174 0 1 1-1-1m184 0 1 1-1-1m-1132 1v3h1l-1-3m224 0 1 1-1-1m129 0v3h1l-1-3m420 0 1 1-1-1m176 0 1 1-1-1m-724 1 1 1-1-1m546 0 1 1-1-1m179 0 1 1-1-1m-724 1 1 1-1-1m346 0v3h1l-1-3m198 0 1 1-1-1m181 0 1 1-1-1m177 0 1 1-1-1m-901 1 1 1-1-1m189 0v3h1l-1-3m536 0 1 1-1-1m175 0 1 1-1-1m-899 1 1 1-1-1m539 0 1 1-1-1m359 0 1 1-1-1m169 0 1 1-1-1m-1296 1v3h1l-1-3m509 0v3h1l-1-3m258 0 1 1-1-1m530 0 1 1-1-1m-944 1v3h1l-1-3m771 0 1 1-1-1m174 0 1 1-1-1m-1067 1 1 1-1-1m533 0 1 1-1-1m193 0 1 1-1-1m166 0 1 1-1-1m176 0 1 1-1-1m-1067 1 1 1-1-1m184 0v3h1l-1-3m156 0v3h1l-1-3m191 0 1 1-1-1m195 0 1 1-1-1m164 0 1 1-1-1m-163 1 1 1-1-1m162 0 1 1-1-1m-361 1 1 1-1-1m360 0 1 1-1-1m181 0 1 1-1-1m-1302 1v3h1l-1-3m235 0 1 1-1-1m274 0v3h1l-1-3m251 0 1 1-1-1m543 0 1 1-1-1m-1067 1 1 1-1-1m117 0v3h1l-1-3m406 0 1 1-1-1m203 0 1 1-1-1m342 0 1 1-1-1m-341 1 1 1-1-1m-547 1v3h1l-1-3m156 0v3h1l-1-3m184 0 1 1-1-1m208 0 1 1-1-1m-726 1 1 1-1-1m517 0 1 1-1-1m551 0 1 1-1-1m-1307 2v3h1l-1-3m240 0 1 1-1-1m269 0v3h1l-1-3m244 0 1 1-1-1m214 0 1 1-1-1m-726 1 1 1-1-1m112 0v3h1l-1-3m399 0 1 1-1-1m216 0 1 1-1-1m341 0 1 1-1-1m-558 1 1 1-1-1m-509 1 1 1-1-1m174 0v3h1l-1-3m156 0v3h1l-1-3m397 0 1 1-1-1m-221 1 1 1-1-1m222 0 1 1-1-1m341 0 1 1-1-1m-1312 1v3h1l-1-3m244 0 1 1-1-1m504 0 1 1-1-1m-239 1v3h1l-1-3m463 0 1 1-1-1m341 0 1 1-1-1m-1068 1 1 1-1-1m108 0v3h1l-1-3m620 0 1 1-1-1m-557 1v3h1l-1-3m-170 1 1 1-1-1m326 0v3h1l-1-3m402 0 1 1-1-1m341 0 1 1-1-1m-209 1 1 1-1-1m-1107 1v3h1l-1-3m248 0 1 1-1-1m728 0 1 1-1-1m130 0 1 1-1-1m211 0 1 1-1-1m-808 1v3h1l-1-3m233 0 1 1-1-1m235 0 1 1-1-1m128 0 1 1-1-1m-855.67 1.67.34.66-.34-.66M1110 1178v3h1l-1-3m388 0 1 1-1-1m363 0 1 1-1-1m214 0 1 1-1-1m-902 1v3h1l-1-3m562 0 1 1-1-1m-406 1v3h1l-1-3m747 0 1 1-1-1m-1254 4h1l21-2h52c-5.216-2.19-12.381-1-18-1h-38c-5.364 0-14.764-1.99-18 3m185-3 1 1-1-1m489 0 1 1-1-1m240 0 1 1-1-1m-980 1v3h1l-1-3z"/><path style="fill:#2d2e2e;stroke:none" d="M802 1304h57c13.842 0 27.939.62 41-4.88 37.856-15.93 68.599-75.3 28.999-106.6C911.277 1178.51 887.105 1182 866 1182h-31c-3.1 0-8.662-1.04-11.262 1.03-5.347 4.24-5.535 24.33-6.657 30.97-4.962 29.39-13.803 60.24-15.081 90z"/><path style="fill:#9f9ea0;stroke:none" d="M904 1182v1h4l-4-1m954 0 1 1-1-1m219 0 1 1-1-1m-1166.333 1.33.666.34-.666-.34m97.663.34.34.66-.34-.66M1265 1183v3h1l-1-3m230 0 1 1-1-1m115 0v1h12l-12-1m127 0 1 1-1-1m120 0 1 1-1-1m101 0v1h5l-5-1z"/><path style="fill:#2d2e2e;stroke:none" d="M1963 1183.43c-27.57 3.75-48.13 22.86-64.12 44.57-31.77 43.16-46.44 99.72-42.79 153 2.28 33.34 21.96 88.64 63.91 84.7 26.91-2.53 47.08-20.53 63.58-40.7 34.76-42.49 51.44-103.64 46.25-158-3.33-34.89-22.66-89.58-66.83-83.57z"/><path style="fill:#9f9ea0;stroke:none" d="M1973 1183v1h5l-5-1m-1059.333 1.33.666.34-.666-.34M1109 1184v3h1l-1-3m63 0v3h1l-1-3m431 0v1h4l-4-1m24 0v1h4l-4-1m229 0 1 1-1-1m97 0v1h3l-3-1m27.67.33.66.34-.66-.34m97.33-.33 1 1-1-1m-1162 1 1 1-1-1m578 0 1 1-1-1m104 0v1h3l-3-1m36.67.33.66.34-.66-.34M1738 1185l1 1-1-1m212.67.33.66.34-.66-.34m33.33-.33 1 1-1-1m-1163 1v3h1l-1-3m98 0 1 1-1-1m90.33.67.34.66-.34-.66M1328 1186v3h1l-1-3m165 0 1 1-1-1m101.67.33.66.34-.66-.34m44 0 .66.34-.66-.34m309 0 .66.34-.66-.34m38.33-.33 1 1-1-1m93 0 1 1-1-1m-1324 1v3h1l-1-3m166 0 1 1-1-1m670.67.33.66.34-.66-.34m49.33-.33 1 1-1-1m98.33.67.34.66-.34-.66M1854 1187l1 1-1-1m91 0 1 1-1-1m43 0 1 1-1-1m-1065 1 1 1-1-1m665.67.33.66.34-.66-.34m55.33-.33 1 1-1-1m209 0 1 1-1-1m90 0 1 1-1-1m47 0 1 1-1-1m-1066 1 1 1-1-1m340 0v3h1l-1-3m228 0 1 1-1-1m94 0 1 1-1-1m60 0 1 1-1-1m206 0 1 1-1-1m89 0 1 1-1-1m51 0 1 1-1-1m88 0 1 1-1-1m-1154 1 1 1-1-1m84 0 1 1-1-1m98 0v3h1l-1-3m63 0v3h1l-1-3m412.67.33.66.34-.66-.34m64.33-.33 1 1-1-1m92.33.67.34.66-.34-.66M1939 1190l1 1-1-1m54 0 1 1-1-1m-1066 1 1 1-1-1m654 0 1 1-1-1m69 0 1 1-1-1m287 0 1 1-1-1m58 0 1 1-1-1m86 0 1 1-1-1m-1261 1v3h1l-1-3m507 0v3h1l-1-3m164.33.67.34.66-.34-.66m87.67-.67 1 1-1-1m73 0 1 1-1-1m198 0 1 1-1-1m85 0 1 1-1-1m61 0 1 1-1-1m-1242 1v3h1l-1-3m257.33.67.34.66-.34-.66M1577 1193l1 1-1-1m76 0 1 1-1-1m88 0 1 1-1-1m108 0 1 1-1-1m85 0 1 1-1-1m63 0 1 1-1-1m85 0 1 1-1-1m-819 1v4h1l-1-4m312 0 1 1-1-1m80 0 1 1-1-1m193 0 1 1-1-1m84 0 1 1-1-1m-762 1v3h1l-1-3m486 0 1 1-1-1m86.33.67.34.66-.34-.66M1931 1195l1 1-1-1m152 0 1 1-1-1m-976 1v3h1l-1-3m383 0v4h1l-1-4m82 0 1 1-1-1m357 0 1 1-1-1m-359 1 1 1-1-1m89 0 1 1-1-1m187 0 1 1-1-1m82 0 1 1-1-1m156.33.67.34.66-.34-.66M819 1198v3h1l-1-3m193 0v3h1l-1-3m314 0v3h1l-1-3m334 0 1 1-1-1m83.33.67.34.66-.34-.66M1845 1198l1 1-1-1m-1092 1v3h1l-1-3m814 0 1 1-1-1m94 0 1 1-1-1m-725 1 1 1-1-1m326 0v4h1l-1-4m304 0 1 1-1-1m96 0 1 1-1-1m262 0 1 1-1-1m80 0 1 1-1-1m81.33.67.34.66-.34-.66M937 1201l1 1-1-1m232 0v3h1l-1-3m395 0 1 1-1-1m99 0 1 1-1-1m180 0 1 1-1-1m80 0 1 1-1-1m82 0 1 1-1-1m-899 1v3h1l-1-3m457 0 1 1-1-1m101 0 1 1-1-1m80.33.67.34.66-.34-.66M1922 1202l1 1-1-1m84 0 1 1-1-1m-1188 1v4h1l-1-4m847 0 1 1-1-1m421.33.67.34.66-.34-.66M752 1204v3h1l-1-3m187 0 1 1-1-1m74 0v5h1l-1-5m312 0v3h1l-1-3m165 0v4h1l-1-4m70 0 1 1-1-1m106 0 1 1-1-1m175 0 1 1-1-1m-282 1 1 1-1-1m108 0 1 1-1-1m173 0 1 1-1-1m168 0 1 1-1-1m-1068 1 1 1-1-1m321 0v3h1l-1-3m484.33.67.34.66-.34-.66M2009 1206l1 1-1-1m78.33.67.34.66-.34-.66M941 1207l1 1-1-1m164.33.67.34.66-.34-.66m62.67-.67c1.19 5.54 17.05 3 22 3h71v-1h-65c-8.47 0-20.43 2.21-28-2m388 0 1 1-1-1m283 0 1 1-1-1m-284 1 1 1-1-1m114 0 1 1-1-1m169 0 1 1-1-1m172 0 1 1-1-1m-1193 1v3h1l-1-3m125 0 1 1-1-1m115 0v1h48c-12.41-5.21-34.47-1-48-1m268 0v1h30l-30-1m229 0 1 1-1-1m116 0 1 1-1-1m244 0 1 1-1-1m97 0 1 1-1-1m77.33.67.34.66-.34-.66M751 1210v3h1l-1-3m301.67.33.66.34-.66-.34m307 0 .66.34-.66-.34M1491 1210l1 1-1-1m346 0 1 1-1-1m76 0 1 1-1-1m-864 1 1 1-1-1m313.67.33.66.34-.66-.34M1551 1211l1 1-1-1m120 0 1 1-1-1m75 0v3h1l-1-3m90 0 1 1-1-1m76 0 1 1-1-1m100 0 1 1-1-1m-1069 1 1 1-1-1m104 0 1 1-1-1m318 0 1 1-1-1m127 0 1 1-1-1m58 0 1 1-1-1m122 0 1 1-1-1m417.33.67.34.66-.34-.66M1045 1213l1 1-1-1m321 0 1 1-1-1m183 0 1 1-1-1m286 0 1 1-1-1m178 0 1 1-1-1m-1068.667 1.67.334.66-.334-.66M1043 1214l1 1-1-1m325 0 1 1-1-1m125 0 1 1-1-1m180 0 1 1-1-1m161 0 1 1-1-1m-1018 1v3h1l-1-3m226 0 1 1-1-1m328 0 1 1-1-1m176 0 1 1-1-1m-796 1v3h1l-1-3m264 0v3h1l-1-3m27 0 1 1-1-1m330 0 1 1-1-1m123 0 1 1-1-1m51 0 1 1-1-1m129 0 1 1-1-1m159 0 1 1-1-1m182 0 1 1-1-1m75.33.67.34.66-.34-.66m-1144.997 1 .334.66-.334-.66M1372 1217l1 1-1-1m172 0 1 1-1-1m203 0v3h1l-1-3m160 0 1 1-1-1m-534 1 1 1-1-1m302 0 1 1-1-1m157 0 1 1-1-1m74 0 1 1-1-1m110 0 1 1-1-1m-642 1 1 1-1-1m167 0 1 1-1-1m290 0 1 1-1-1m74 0 1 1-1-1m-868 1 1 1-1-1m338 0 1 1-1-1m165 0 1 1-1-1m136 0 1 1-1-1m228 0 1 1-1-1m113 0 1 1-1-1m74.33.67.34.66-.34-.66M749 1221v3h1l-1-3m66 0v3h1l-1-3m131 0v3h1l-1-3m90 0 1 1-1-1m502 0 1 1-1-1m292 0 1 1-1-1m-795 1 1 1-1-1m465 0 1 1-1-1m37 0 1 1-1-1m140.33.67.34.66-.34-.66m341 0 .34.66-.34-.66M1034 1223l1 1-1-1m343 0 1 1-1-1m124 0 1 1-1-1m34 0 1 1-1-1m294 0 1 1-1-1m73 0 1 1-1-1m-524 1 1 1-1-1m125 0 1 1-1-1m30.67.33.66.34-.66-.34M1901 1224l1 1-1-1m191.33.67.34.66-.34-.66M1033 1225l1 1-1-1m472 0 1 1-1-1m26 0 1 1-1-1m147 0 1 1-1-1m341 0 1 1-1-1m-640 1 1 1-1-1m128 0 1 1-1-1m21.67.33.66.34-.66-.34M1827 1226l1 1-1-1m-1079 1v3h1l-1-3m66 0v3h1l-1-3m218 0 1 1-1-1m478 0v1h3l-3-1m14.67.33.66.34-.66-.34M1748 1227v14h1l-1-14m151 0 1 1-1-1m121 0 1 1-1-1m-639.67 1.67.34.66-.34-.66M1516 1228v1h3l-3-1m163.33.67.34.66-.34-.66M1826 1228l1 1-1-1m72 0 1 1-1-1m195 0v3h1l-1-3m-1061.67 1.67.34.66-.34-.66M1897 1229l1 1-1-1m124.33.67.34.66-.34-.66M947 1230v3h1l-1-3m66 0v4h1l-1-4m368.33 1.67.34.66-.34-.66M1824 1231l1 1-1-1m72 0 1 1-1-1m-1083 1v3h1l-1-3m217.33.67.34.66-.34-.66M1680 1232v3h1l-1-3m215 0 1 1-1-1m127.33.67.34.66-.34-.66M747 1233v3h1l-1-3m1076 0 1 1-1-1m-441 1v6h1l-1-6m512 0 1 1-1-1m200 0v3h1l-1-3m-272 1 1 1-1-1m71 0 1 1-1-1m130.33.67.34.66-.34-.66M1821 1237l1 1-1-1m71 0 1 1-1-1m-1146 1v3h1l-1-3m66 0v3h1l-1-3m200 0v4h1l-1-4m669 0v16h1l-1-16m210 0 1 1-1-1m133.33.67.34.66-.34-.66M946 1239v4h1l-1-4m83 0v3h1l-1-3m791 0 1 1-1-1m70 1 1 1-1-1m-508 1v5h1l-1-5m437 0 1 1-1-1m70 0 1 1-1-1m136.33.67.34.66-.34-.66m69.67-.67v3h1l-1-3m-277 2 1 1-1-1m70 0 1 1-1-1m-1143 1v3h1l-1-3m66 0v3h1l-1-3m200 0v3h1l-1-3m-66 1v3h1l-1-3m872 0 1 1-1-1m70 0 1 1-1-1m139 0v3h1l-1-3m-140 1 1 1-1-1m-855.67 1.67.34.66-.34-.66m786 0 .34.66-.34-.66M2096 1247v8h1l-1-8m-714.67 1.67.34.66-.34-.66M1747 1248v4h1l-1-4m138 0 1 1-1-1m-940.667 1.67.334.66-.334-.66m65.997 0 .34.66-.34-.66M744 1250v3h1l-1-3m66 0v3h1l-1-3m221.33.67.34.66-.34-.66M1815 1250l1 1-1-1m69 0 1 1-1-1m143.33.67.34.66-.34-.66m-647 1 .34.66-.34-.66m-436.997 1 .334.66-.334-.66M1814 1252l1 1-1-1m69 0 1 1-1-1m-873.67 1.67.34.66-.34-.66m22.67-.67 1 1-1-1m347 0 1 1-1-1m503 0 1 1-1-1m146 1v4h1l-1-4m-1285 1v4h1l-1-4m66 0v3h1l-1-3m133.333.67.334.66-.334-.66M1033 1255l1 1-1-1m345 0 1 1-1-1m435 0 1 1-1-1m68 0 1 1-1-1m-847 1 1 1-1-1m712 0v4h1l-1-4m-737.67 1.67.34.66-.34-.66M1377 1257l1 1-1-1m303 0v4h1l-1-4m132 0 1 1-1-1m68 0 1 1-1-1m-939 1 1 1-1-1m435 0 1 1-1-1m-340 1 1 1-1-1m339 0 1 1-1-1m436.33.67.34.66-.34-.66m67.67-.67 1 1-1-1m-939 1 1 1-1-1m67.33.67.34.66-.34-.66m29.67-.67 1 1-1-1m-295 1v3h1l-1-3m66 0v3h1l-1-3m230 0 1 1-1-1m840.33.67.34.66-.34-.66M2029 1261v4h1l-1-4m-1090 1 1 1-1-1m100 0 1 1-1-1m706 0v3h1l-1-3m65 0 1 1-1-1m287 0v19h1l-1-19m-1090.67 1.67.34.66-.34-.66m33.67-.67 1 1-1-1m331 0 1 1-1-1m308.33.67.34.66-.34-.66M938 1264l1 1-1-1m103 0 1 1-1-1m329 0 1 1-1-1m439 0 1 1-1-1m68 0 1 1-1-1m-508 1 1 1-1-1m-432 1 1 1-1-1m68.33.67.34.66-.34-.66m38.67-.67 1 1-1-1m323 0 1 1-1-1m509 0 1 1-1-1m-1135 1v3h1l-1-3m66 0v3h1l-1-3m239 0 1 1-1-1m320 0 1 1-1-1m312.33.67.34.66-.34-.66m66 0 .34.66-.34-.66m63.67-.67 1 1-1-1m-760 1 1 1-1-1m316 0 1 1-1-1m511 0 1 1-1-1m-940 1 1 1-1-1m69 0 1 1-1-1m46.67.33.66.34-.66-.34m311 0 .66.34-.66-.34M1053 1270v1h3l-3-1m303 0v1h3l-3-1m451 0 1 1-1-1m67.33.67.34.66-.34-.66M1060 1271v1c8.82 0 26.88-3.39 34 2 1.46-3.87-4.43-3-7-3h-27m98 0v1h66c7.23 0 20.1-2.47 26 2 1.77-4.71-17.44-3-21-3h-71m156 0v1h38c-10.04-4.21-27.09-1-38-1m363 0 1 1-1-1m66 0v3h1l-1-3m287 0v8h1l-1-8m-1290 1v4h1l-1-4m193 0 1 1-1-1m70 0 1 1-1-1z"/><path style="fill:#2d2e2e;stroke:none" d="m1158 1272-17 102h92l17-102h-92z"/><path style="fill:#9f9ea0;stroke:none" d="M806 1273v3h1l-1-3m126 0 1 1-1-1m381 0v3h1l-1-3m493 0 1 1-1-1m67 0 1 1-1-1m-871 1 1 1-1-1m155 0v3h1l-1-3m519.33.67.34.66-.34-.66m195.67.33 1 1-1-1m-942 1 1 1-1-1m71.33.67.34.66-.34-.66M1742 1276l1 1-1-1m63 0 1 1-1-1m-876 1 1 1-1-1m164 0v3h1l-1-3m156 0v3h1l-1-3m426 0 1 1-1-1m-936 1v3h1l-1-3m66 0v3h1l-1-3m123 0 1 1-1-1m876.33.67.34.66-.34-.66m66.67-.67 1 1-1-1m-944 1 1 1-1-1m73 0 1 1-1-1m312 0v3h1l-1-3m362 0 1 1-1-1m67.33.67.34.66-.34-.66M926 1280l1 1-1-1m230 0v3h1l-1-3m714.33.67.34.66-.34-.66M925 1281l1 1-1-1m74 0 1 1-1-1m674.33.67.34.66-.34-.66m130 0 .34.66-.34-.66M924 1282l1 1-1-1m324 0v3h1l-1-3m492.33.67.34.66-.34-.66M923 1283l1 1-1-1m75 0 1 1-1-1m94 0v3h1l-1-3m777.33.67.34.66-.34-.66M738 1284v3h1l-1-3m66 0v3h1l-1-3m118 0 1 1-1-1m750 0 1 1-1-1m130.33.67.34.66-.34-.66M921 1285l1 1-1-1m76 0 1 1-1-1m314 0v3h1l-1-3m428.33.67.34.66-.34-.66M920 1286l1 1-1-1m235 0v3h1l-1-3m516 0 1 1-1-1m197.33.67.34.66-.34-.66M2030 1286v14h1l-1-14m-360 1 1 1-1-1m-753 1 1 1-1-1m78 0 1 1-1-1m96 0v4h1l-1-4m156 0v3h1l-1-3m491.33.67.34.66-.34-.66m63 0 .34.66-.34-.66M737 1289v4h1l-1-4m179 0 1 1-1-1m753 0 1 1-1-1m198.33.67.34.66-.34-.66M803 1290v3h1l-1-3m112 0 1 1-1-1m79 0 1 1-1-1m316 0v4h1l-1-4m786 0v6h1l-1-6m-1183 1 1 1-1-1m755 0 1 1-1-1m69 0 1 1-1-1m-825 1 1 1-1-1m81 0 1 1-1-1m161 0v3h1l-1-3m513 0 1 1-1-1m133.33.67.34.66-.34-.66m66 0 .34.66-.34-.66M910 1293l1 1-1-1m826.33.67.34.66-.34-.66M909 1294l1 1-1-1m181 0v3h1l-1-3m156 0v3h1l-1-3m420 0 1 1-1-1m-930 1v3h1l-1-3m171 0 1 1-1-1m84 0 1 1-1-1m674 0 1 1-1-1m134.33.67.34.66-.34-.66m66 0 .34.66-.34-.66M802 1296v3h1l-1-3m103 0 1 1-1-1m404 0v3h1l-1-3m426 0 1 1-1-1m-832 1 1 1-1-1m250 0v3h1l-1-3m511 0 1 1-1-1m-763 1 1 1-1-1m88 0 1 1-1-1m674 0 1 1-1-1m71 0 1 1-1-1m-835 1 1 1-1-1m763 0 1 1-1-1m136.33.67.34.66-.34-.66m66 0 .34.66-.34-.66M896 1300l1 1-1-1m92 0 1 1-1-1m101 0v3h1l-1-3m156 0v3h1l-1-3m488.33.67.34.66-.34-.66M735 1301v3h1l-1-3m66 0v3h1l-1-3m91.667.33.666.34-.666-.34M987 1301l1 1-1-1m-99 1v1h3l-3-1m420 0v3h1l-1-3m352 0 1 1-1-1m435 0v4h1l-1-4m-1213 1v1h4l-4-1m270 0v3h1l-1-3m507 0 1 1-1-1m73 0 1 1-1-1m65.33.67.34.66-.34-.66m66 0 .34.66-.34-.66M802 1304v1h72l-23-1h-49m183 0 1 1-1-1m673 0 1 1-1-1m-674 1 1 1-1-1m673 0 1 1-1-1m74 0 1 1-1-1m-997 1v4h1l-1-4m354 0v3h1l-1-3m156 0v3h1l-1-3m412 0 1 1-1-1m373 0v5h1l-1-5m-374 1 1 1-1-1m75 0 1 1-1-1m66 0v3h1l-1-3m66.33.67.34.66-.34-.66M982 1308l1 1-1-1m325 0v3h1l-1-3m347 0 1 1-1-1m75 0 1 1-1-1m-748 1 1 1-1-1m170 0v3h1l-1-3m502 0 1 1-1-1m441 0v4h1l-1-4m-1114 1 1 1-1-1m672 0 1 1-1-1m76 0 1 1-1-1m-485 1v3h1l-1-3m408 0 1 1-1-1m210.33.67.34.66-.34-.66M733 1312v3h1l-1-3m354 0v3h1l-1-3m563 0 1 1-1-1m77 0 1 1-1-1m68 0v3h1l-1-3m-817 1 1 1-1-1m671 0 1 1-1-1m-672 1 1 1-1-1m329 0v3h1l-1-3m420 0 1 1-1-1m302 0v4h1l-1-4m-1052 1 1 1-1-1m174 0v3h1l-1-3m-175 1 1 1-1-1m670 0 1 1-1-1m80 0 1 1-1-1m135.33.67.34.66-.34-.66M2093 1316v4h1l-1-4m-1119 1 1 1-1-1m112 0v3h1l-1-3m156 0v3h1l-1-3m402 0 1 1-1-1m80 0 1 1-1-1m70 0v3h1l-1-3m-1062 1v3h1l-1-3m241 0 1 1-1-1m670 0 1 1-1-1m-671 1 1 1-1-1m333 0v4h1l-1-4m418 0 1 1-1-1m-752 1 1 1-1-1m178 0v4h1l-1-4m491 0 1 1-1-1m82 0 1 1-1-1m-83 1 1 1-1-1m220.33.67.34.66-.34-.66M1721 1322l1 1-1-1m72 0v3h1l-1-3m234 0v3h1l-1-3m-942 1v3h1l-1-3m156 0v3h1l-1-3m395 0 1 1-1-1m84 0 1 1-1-1m372 0v3h1l-1-3m-1361 1v3h1l-1-3m236 0 1 1-1-1m668 0 1 1-1-1m-669 1 1 1-1-1m338 0v3h1l-1-3m330 0 1 1-1-1m85 0 1 1-1-1m-754 1 1 1-1-1m183 0v3h1l-1-3m570 0 1 1-1-1m140 0v4h1l-1-4m-894 1 1 1-1-1m667 0 1 1-1-1m395 0v3h1l-1-3m-1063 1 1 1-1-1m667 0 1 1-1-1m87 0 1 1-1-1m75 0v4h1l-1-4m299 0v3h1l-1-3m-1361 1v3h1l-1-3m232 0 1 1-1-1m122 0v3h1l-1-3m156 0v3h1l-1-3m476 0 1 1-1-1m-755 1 1 1-1-1m666 0 1 1-1-1m-667 1 1 1-1-1m343 0v3h1l-1-3m323 0 1 1-1-1m-479 1v3h1l-1-3m478 0 1 1-1-1m89 0 1 1-1-1m311 0v3h1l-1-3m-312 1 1 1-1-1m144 0v3h1l-1-3m233 0v3h1l-1-3m-1134 1 1 1-1-1m283 0v4h1l-1-4m383 0 1 1-1-1m90 0 1 1-1-1m-983 1v3h1l-1-3m226 0 1 1-1-1m128 0v3h1l-1-3m538 0 1 1-1-1m90 0 1 1-1-1m80 0v3h1l-1-3m-839 2 1 1-1-1m350 0v3h1l-1-3m316 0 1 1-1-1m406 0v3h1l-1-3m-1073 1 1 1-1-1m195 0v3h1l-1-3m471 0 1 1-1-1m472 0v3h1l-1-3m-1139 1 1 1-1-1m666 0 1 1-1-1m92 0 1 1-1-1m-626 1v4h1l-1-4m156 0v3h1l-1-3m469 0 1 1-1-1m149 0v6h1l-1-6m-1128 1v3h1l-1-3m219 0 1 1-1-1m666 0 1 1-1-1m93 0 1 1-1-1m84 0v4h1l-1-4m233.33.67.34.66-.34-.66M946 1342l1 1-1-1m666 0 1 1-1-1m-668 1 1 1-1-1m357 0v3h1l-1-3m787.33.67.34.66-.34-.66M943 1344l1 1-1-1m202 0v3h1l-1-3m464 0 1 1-1-1m-668 1 1 1-1-1m667 0 1 1-1-1m414.33.67.34.66-.34-.66M727 1346v3h1l-1-3m213 0 1 1-1-1m141 0v3h1l-1-3m156 0v3h1l-1-3m370 0 1 1-1-1m-669 1 1 1-1-1m1149.33.67.34.66-.34-.66M937 1348l1 1-1-1m363 0v3h1l-1-3m304 0 1 1-1-1m-669 1 1 1-1-1m209 0v4h1l-1-4m459 0 1 1-1-1m418.33.67.34.66-.34-.66M933 1350l1 1-1-1m-2 1 1 1-1-1m669 0 1 1-1-1m189 0v6h1l-1-6m66 0v16h1l-1-16m231.33.67.34.66-.34-.66M726 1352v3h1l-1-3m354 0v3h1l-1-3m156 0v3h1l-1-3m363 0 1 1-1-1m421.33.67.34.66-.34-.66M928 1353l1 1-1-1m670 0 1 1-1-1m-672 1 1 1-1-1m373 0v3h1l-1-3m-375 1 1 1-1-1m219 0v3h1l-1-3m452 0 1 1-1-1m97 0 1 1-1-1m393.33.67.34.66-.34-.66m-1163.663.66.666.34-.666-.34M1594 1356l1 1-1-1m97 0 1 1-1-1m328.33.67.34.66-.34-.66M919 1357l1 1-1-1m771 0 1 1-1-1m-965 1v3h1l-1-3m192 0 1 1-1-1m162 0v3h1l-1-3m156 0v3h1l-1-3m356 0 1 1-1-1m98 0 1 1-1-1m395.33.67.34.66-.34-.66M915 1359l1 1-1-1m675 0 1 1-1-1m428 0 1 1-1-1m-1105.333 1.33.666.34-.666-.34M1298 1360v3h1l-1-3m291 0 1 1-1-1m-679.333 1.33.666.34-.666-.34M1142 1361v3h1l-1-3m543 0 1 1-1-1m-778.333 1.33.666.34-.666-.34M1586 1362l1 1-1-1m98 0 1 1-1-1m333 0 1 1-1-1m66.33.67.34.66-.34-.66M724 1363v3h1l-1-3m179.667.33.666.34-.666-.34M1234 1363v4h1l-1-4m351 0 1 1-1-1m98 0 1 1-1-1m105 0v26h1l-1-26m-887 1 1 1-1-1m177 0v3h1l-1-3m604 0 1 1-1-1m-786 1v1h3l-3-1m686 0 1 1-1-1m434 0 1 1-1-1m66.33.67.34.66-.34-.66M892 1366v1h3l-3-1m405 0v3h1l-1-3m284 0 1 1-1-1m98 0 1 1-1-1m-790.333 1.33.666.34-.666-.34M1141 1367v3h1l-1-3m439 0 1 1-1-1m98 0 1 1-1-1m-797 1v1h4l-4-1m796 0 1 1-1-1m178 0v10h1l-1-10m160 0 1 1-1-1m66.33.67.34.66-.34-.66M723 1369v3h1l-1-3m149 0v1h6l-6-1m205 0v4h1l-1-4m156 0v3h1l-1-3m344 0 1 1-1-1m-788 1v1h75l-23-1h-52m787 0 1 1-1-1m98 0 1 1-1-1m340.33.67.34.66-.34-.66M1296 1371v3h1l-1-3m377 0 1 1-1-1m407.33.67.34.66-.34-.66M1573 1372l1 1-1-1m-433 1 1 1-1-1m432 0 1 1-1-1m98 0 1 1-1-1m343 0 1 1-1-1m-1225 1v3h1l-1-3m245 0v1h43c-11.23-4.71-30.78-1-43-1m108 0v1h91l-28-1h-63m156 0v1h39c-10.27-4.31-27.83-1-39-1m274 0 1 1-1-1m98 0 1 1-1-1m410.33.67.34.66-.34-.66M722 1375v3h1l-1-3m307.67.33.66.34-.66-.34m309 0 .66.34-.66-.34M1668 1375l1 1-1-1m344 0 1 1-1-1m-985 1 1 1-1-1m314.67.33.66.34-.66-.34M1568 1376l1 1-1-1m-543 1 1 1-1-1m319 0 1 1-1-1m223 0 1 1-1-1m98 0 1 1-1-1m413.33.67.34.66-.34-.66M1023 1378l1 1-1-1m322 0 1 1-1-1m319 0 1 1-1-1m347 0 1 1-1-1m-664 1 1 1-1-1m217 0 1 1-1-1m-843 1v3h1l-1-3m66 0v3h1l-1-3m233 0 1 1-1-1m328 0 1 1-1-1m215 0 1 1-1-1m98 0 1 1-1-1m349 0 1 1-1-1m67.33.67.34.66-.34-.66M1019 1381l1 1-1-1m543 0 1 1-1-1m98 0 1 1-1-1m-642 1 1 1-1-1m641 0 1 1-1-1m350 0 1 1-1-1m-450 1 1 1-1-1m517 0 1 1-1-1m-518 1 1 1-1-1m98 0 1 1-1-1m200 0v4h1l-1-4m152 0 1 1-1-1m-1222 1v3h1l-1-3m229 0 1 1-1-1m640 0 1 1-1-1m-935 1v3h1l-1-3m294 0 1 1-1-1m340 0 1 1-1-1m201 0 1 1-1-1m452.33.67.34.66-.34-.66m67.67-.67 1 1-1-1m-720 1 1 1-1-1m199 0 1 1-1-1m98 0 1 1-1-1m-99 1 1 1-1-1m98 0 1 1-1-1m355.33.67.34.66-.34-.66m67.67-.67 1 1-1-1m-1062 1 1 1-1-1m344 0 1 1-1-1m294 0 1 1-1-1m-100 1 1 1-1-1m455.33.67.34.66-.34-.66m68 0 .34.66-.34-.66M785 1391v3h1l-1-3m226 0 1 1-1-1m346 0 1 1-1-1m192 0 1 1-1-1m98 0 1 1-1-1m210 0v4h1l-1-4m-1138 1v3h1l-1-3m639.33.67.34.66-.34-.66M1646 1392l1 1-1-1m-636 1 1 1-1-1m536 0 1 1-1-1m458 0 1 1-1-1m68 0 1 1-1-1m-527 1 1 1-1-1m-185.67 1.67.34.66-.34-.66M1544 1395l1 1-1-1m98 0 1 1-1-1m429 0 1 1-1-1m-1061.67 1.67.34.66-.34-.66M1641 1396l1 1-1-1m361 0 1 1-1-1m-1284 1v3h1l-1-3m66 0v3h1l-1-3m757 0 1 1-1-1m248 0v6h1l-1-6m69.33.67.34.66-.34-.66M1540 1398l1 1-1-1m98 0 1 1-1-1m363 0 1 1-1-1m69 0 1 1-1-1m-1062 1v13h1l-1-13m352 0v6h1l-1-6m277 0 1 1-1-1m-100 1 1 1-1-1m99 0 1 1-1-1m364 0 1 1-1-1m69 0 1 1-1-1m-533 1 1 1-1-1m323 0v3h1l-1-3m140 0 1 1-1-1m-1216 1v3h1l-1-3m752 0 1 1-1-1m98 0 1 1-1-1m435 0 1 1-1-1m-1351 1v3h1l-1-3m915 0 1 1-1-1m366 0 1 1-1-1m-466 1 1 1-1-1m535 0 1 1-1-1m-536 1 1 1-1-1m98 0 1 1-1-1m368 0 1 1-1-1m-637 1v5h1l-1-5m268 0 1 1-1-1m162 0v4h1l-1-4m70.33.67.34.66-.34-.66M2066 1406l1 1-1-1m-538 1 1 1-1-1m99 0 1 1-1-1m-845 1v3h1l-1-3m745 0 1 1-1-1m468 0 1 1-1-1m70 0 1 1-1-1m-1349 1v3h1l-1-3m810 0 1 1-1-1m98 0 1 1-1-1m237.33.67.34.66-.34-.66M1623 1410l1 1-1-1m441 0 1 1-1-1m-541 1 1 1-1-1m470 0 1 1-1-1m-471 1 1 1-1-1m98 0 1 1-1-1m242.33.67.34.66-.34-.66M1992 1412l1 1-1-1m71 0 1 1-1-1m-1053.67 1.67.34.66-.34-.66m350 0 .34.66-.34-.66M1619 1413l1 1-1-1m172 0v4h1l-1-4m-1076 1v3h1l-1-3m66 0v3h1l-1-3m837 0 1 1-1-1m373 0 1 1-1-1m71 0 1 1-1-1m-544 1 1 1-1-1m345.33.67.34.66-.34-.66M1990 1415l1 1-1-1m-631.67 1.67.34.66-.34-.66M1517 1416l1 1-1-1m98 0 1 1-1-1m446 0 1 1-1-1m-1051 1 1 1-1-1m604 0 1 1-1-1m375 0 1 1-1-1m-475 1 1 1-1-1m350 0 1 1-1-1m124 0 1 1-1-1m72 0 1 1-1-1m-1280 1v3h1l-1-3m231 0 1 1-1-1m502 0 1 1-1-1m98 0 1 1-1-1m-897 1v3h1l-1-3m642 0 1 1-1-1m254 0 1 1-1-1m182.33.67.34.66-.34-.66m73 0 .34.66-.34-.66M2059 1420l1 1-1-1m-1047 1 1 1-1-1m597 0 1 1-1-1m377 0 1 1-1-1m-631 1 1 1-1-1m154 0 1 1-1-1m476 0 1 1-1-1m73 0 1 1-1-1m-704 1 1 1-1-1m154 0 1 1-1-1m98 0 1 1-1-1m260 0 1 1-1-1m118 0 1 1-1-1m73 0 1 1-1-1m-1043 1 1 1-1-1m591 0 1 1-1-1m188.33.67.34.66-.34-.66M779 1425v3h1l-1-3m236 0 1 1-1-1m490 0 1 1-1-1m362 0 1 1-1-1m189 0 1 1-1-1m-1343 1v3h1l-1-3m303 0 1 1-1-1m488 0 1 1-1-1m-487 1 1 1-1-1m584 0 1 1-1-1m267 0 1 1-1-1m113 0 1 1-1-1m74 0 1 1-1-1m-1037 1 1 1-1-1m582 0 1 1-1-1m194.33.67.34.66-.34-.66M1980 1428l1 1-1-1m-961 1 1 1-1-1m329 0 1 1-1-1m152 0 1 1-1-1m369 0 1 1-1-1m110 0 1 1-1-1m-632 1 1 1-1-1m152 0 1 1-1-1m98 0 1 1-1-1m456 0 1 1-1-1m-1341 1v3h1l-1-3m66 0v3h1l-1-3m244 0 1 1-1-1m324 0 1 1-1-1m250 0 1 1-1-1m274 0 1 1-1-1m-846 1 1 1-1-1m320 0 1 1-1-1m152 0 1 1-1-1m299.33.67.34.66-.34-.66M2052 1432l1 1-1-1z"/><path style="fill:#23b372;stroke:none" d="M640 1433.46c-121.951 21.31-243.601 44.64-366 63.95-31.702 5-63.226 11.89-95 16.46-8.614 1.24-30.353 1.28-36.378 7.98-2.643 2.95 1.093 14.34 1.892 18.15 3.707 17.7 7.847 35.31 11.668 53 16.533 76.57 44.462 152.05 77.585 223 9.164 19.63 19.403 38.74 29.313 58 2.458 4.77 7.285 18.04 13.935 17.43 9.012-.82 22.128-11.66 29.985-16.24 21.816-12.72 43.943-24.97 66-37.26 81.858-45.6 164.035-90.93 245-138.12 24.746-14.42 50.053-27.91 75-41.96 7.042-3.97 24.001-9.76 27.777-17.06 2.124-4.11-2.235-9.28-4.021-12.79-5.413-10.65-10.677-21.31-16.003-32-19.744-39.62-32.782-82.25-43.498-125-2.739-10.93-2.609-40.09-17.255-37.54z"/><path style="fill:#9f9ea0;stroke:none" d="m1026 1433 1 1-1-1m316 0 1 1-1-1m153 0 1 1-1-1m376 0 1 1-1-1m-842.33 1.33.66.34-.66-.34m310 0 .66.34-.66-.34M1494 1434l1 1-1-1m98 0 1 1-1-1m-560 1v1h4l-4-1m300 0v1h4l-4-1m259 0 1 1-1-1m281 0 1 1-1-1m102 0 1 1-1-1m76 0 1 1-1-1m-1273 1v3h1l-1-3m289 0 1 1-1-1m63 0v3h1l-1-3m93 0v3h1l-1-3m63.33.67.34.66-.34-.66M1491 1436l1 1-1-1m305 0 1 1-1-1m177 0 1 1-1-1m-1262 1v3h1l-1-3m779 0 1 1-1-1m98 0 1 1-1-1m285 0 1 1-1-1m99 0 1 1-1-1m77 0 1 1-1-1m-462 1 1 1-1-1m384 0 1 1-1-1m77 0 1 1-1-1m-983 1v4h1l-1-4m422 0 1 1-1-1m99 0 1 1-1-1m211 0 1 1-1-1m173 0 1 1-1-1m-484 1 1 1-1-1m389 0 1 1-1-1m94 0 1 1-1-1m-748 1v3h1l-1-3m63 0v3h1l-1-3m201 0 1 1-1-1m98 0 1 1-1-1m293 0 1 1-1-1m92 0 1 1-1-1m78 0 1 1-1-1m-1270 1v3h1l-1-3m352 0v3h1l-1-3m454 0 1 1-1-1m216 0 1 1-1-1m169 0 1 1-1-1m-1257 1v3h1l-1-3m772 0 1 1-1-1m395 0 1 1-1-1m-396 1 1 1-1-1m98 0 1 1-1-1m299 0 1 1-1-1m166 0 1 1-1-1m-980 1v3h1l-1-3m514 0 1 1-1-1m221 0 1 1-1-1m244 0 1 1-1-1m-565 1 1 1-1-1m99 0 1 1-1-1m385 0 1 1-1-1m-742 1v3h1l-1-3m63 0v3h1l-1-3m194 0 1 1-1-1m403 0 1 1-1-1m81 0 1 1-1-1m81 0 1 1-1-1m-1333 1v3h1l-1-3m66 0v3h1l-1-3m352 0v3h1l-1-3m349 0 1 1-1-1m98 0 1 1-1-1m226 0 1 1-1-1m81 0 1 1-1-1m79 0 1 1-1-1m81 0 1 1-1-1m-468 1 1 1-1-1m309 0 1 1-1-1m-409 1 1 1-1-1m410 0 1 1-1-1m157 0 1 1-1-1m-977 1v3h1l-1-3m409 0 1 1-1-1m98 0 1 1-1-1m231 0 1 1-1-1m155 0 1 1-1-1m83 0 1 1-1-1m-757 1v4h1l-1-4m287 0 1 1-1-1m316 0 1 1-1-1m70 0 1 1-1-1m-1181 1v3h1l-1-3m445 0v3h1l-1-3m250 0 1 1-1-1m99 0 1 1-1-1m234 0 1 1-1-1m84 0 1 1-1-1m67 0 1 1-1-1m-1245 1v3h1l-1-3m418 0v3h1l-1-3m342 0 1 1-1-1m419 0 1 1-1-1m65 0 1 1-1-1m-485 1 1 1-1-1m98 0 1 1-1-1m238 0 1 1-1-1m85 0 1 1-1-1m62 0 1 1-1-1m86 0 1 1-1-1m-472 1 1 1-1-1m385 0 1 1-1-1m86 0 1 1-1-1m-973 1v3h1l-1-3m402 0 1 1-1-1m427 0 1 1-1-1m56 0 1 1-1-1m-729 1v3h1l-1-3m63 0v3h1l-1-3m182 0 1 1-1-1m98 0 1 1-1-1m243 0 1 1-1-1m88 0 1 1-1-1m53 0 1 1-1-1m-1172 1v3h1l-1-3m352 0v4h1l-1-4m435 0 1 1-1-1m334 0 1 1-1-1m49 0 1 1-1-1m-1236 1v3h1l-1-3m753 0 1 1-1-1m99 0 1 1-1-1m246 0 1 1-1-1m136 0 1 1-1-1m91 0 1 1-1-1m-573 1 1 1-1-1m438.67.33.66.34-.66-.34m41 0 .66.34-.66-.34m92.33-.33 1 1-1-1m-573 1 1 1-1-1m98 0 1 1-1-1m250 0 1 1-1-1m94 0 1 1-1-1m36 0 1 1-1-1m-875 1v3h1l-1-3m494 0 1 1-1-1m347 0 1 1-1-1m31 0 1 1-1-1m-716 1v3h1l-1-3m63 0v3h1l-1-3m175 0 1 1-1-1m352 0 1 1-1-1m98.67.33.66.34-.66-.34m24 0 .66.34-.66-.34M706 1465v3h1l-1-3m66 0v3h1l-1-3m352 0v3h1l-1-3m330 0 1 1-1-1m455 0v1h6l-6-1m12 0v1h6l-6-1m107 0 1 1-1-1m-476 1v1h126c-10.03-4.21-27.1-1-38-1h-88m256 0 1 1-1-1m219 0 1 1-1-1m-576 1 1 1-1-1m232.67.33.66.34-.66-.34M2026 1467l1 1-1-1m-576 1 1 1-1-1m236.67.33.66.34-.66-.34M1809 1468l1 1-1-1m-749 1v3h1l-1-3m156 0v3h1l-1-3m233 0 1 1-1-1m240 0 1 1-1-1m-918 1v3h1l-1-3m508 0v3h1l-1-3m412 0 1 1-1-1m119 0 1 1-1-1m-1105 1v3h1l-1-3m418 0v3h1l-1-3m323 0 1 1-1-1m246 0 1 1-1-1m331 0 1 1-1-1m-578 1 1 1-1-1m249 0 1 1-1-1m117 0 1 1-1-1m211 0 1 1-1-1m-327 1 1 1-1-1m326 0 1 1-1-1m-962 1v3h1l-1-3m383 0 1 1-1-1m254 0 1 1-1-1m116 0 1 1-1-1m208 0 1 1-1-1m-805 1v3h1l-1-3m226 0 1 1-1-1m256 0 1 1-1-1m322 0 1 1-1-1m-1249 1v3h1l-1-3m508 0v3h1l-1-3m162 0 1 1-1-1m258 0 1 1-1-1m115 0 1 1-1-1m205 0 1 1-1-1m-1314 1v3h1l-1-3m418 0v3h1l-1-3m317 0 1 1-1-1m-1 1 1 1-1-1m261 0 1 1-1-1m-262 1 1 1-1-1m263 0 1 1-1-1m115 0 1 1-1-1m-757 1v3h1l-1-3m156 0v3h1l-1-3m222 0 1 1-1-1m-1 1 1 1-1-1m266 0 1 1-1-1m115 0 1 1-1-1m-1113 1v3h1l-1-3m66 0v3h1l-1-3m508 0v3h1l-1-3m540 0 1 1-1-1m-696 1v3h1l-1-3m581 0 1 1-1-1m-269 1 1 1-1-1m385 0 1 1-1-1m-386 1 1 1-1-1m271.33.67.34.66-.34-.66M1819 1485l1 1-1-1m-762 1v3h1l-1-3m156 0v3h1l-1-3m-445 1v3h1l-1-3m663 0 1 1-1-1m389 0 1 1-1-1m-1118 1v3h1l-1-3m574 0v3h1l-1-3m545 0 1 1-1-1m-701 1v3h1l-1-3m310 0 1 1-1-1m392 0 1 1-1-1m183 0 1 1-1-1m-301 1v9h1l-1-9m300 0 1 1-1-1m-792 1v3h1l-1-3m217 0 1 1-1-1m574 0 1 1-1-1m-947 1v3h1l-1-3m768 0 1 1-1-1m178 0 1 1-1-1m-1235 1v3h1l-1-3m508 0v4h1l-1-4m153.33.67.34.66-.34-.66M1825 1493l1 1-1-1m176 0 1 1-1-1m-1300 1v3h1l-1-3m418 0v4h1l-1-4m707 0 1 1-1-1m174 0 1 1-1-1m-789 3v5h1l-1-5m216 0v3h1l-1-3m569 0 1 1-1-1m-1230 1v3h1l-1-3m289 0v11h1l-1-11m940 0 1 1-1-1m-721 1v3h1l-1-3m556 0 1 1-1-1m164 0 1 1-1-1m-876 1v3h1l-1-3m713 0 1 1-1-1m-1131 1v6h1l-1-6m1003.33.67.34.66-.34-.66M1832 1501l1 1-1-1m159 0 1 1-1-1m-1225.667 1.67.334.66-.334-.66M1833 1502l1 1-1-1m157 0 1 1-1-1m-564 1v4h1l-1-4m408 0 1 1-1-1m153 1 1 1-1-1m-1222.667 1.67.334.66-.334-.66M1273 1505v3h1l-1-3m429 0 1 1-1-1m284 0 1 1-1-1m-869 1v3h1l-1-3m94 0v4h1l-1-4m627 0 1 1-1-1m146 0 1 1-1-1m-1220.667 1.67.334.66-.334-.66M1701 1507l1 1-1-1m138 0 1 1-1-1m144 0 1 1-1-1m-143 1 1 1-1-1m141 0 1 1-1-1m-281 1 1 1-1-1m141 0 1 1-1-1m139 0 1 1-1-1m-708 1v3h1l-1-3m706 0 1 1-1-1m-1277 1 1 1-1-1m60 0 1 1-1-1m355.33.67.34.66-.34-.66m311 0 .34.66-.34-.66M1699 1511l1 1-1-1m145 0 1 1-1-1m-1084 1 1 1-1-1m296 0 1 1-1-1m156 0 1 1-1-1m633 0 1 1-1-1m130 0 1 1-1-1m-277 1 1 1-1-1m275 0 1 1-1-1m-1271 1 1 1-1-1m57 0 1 1-1-1m356.33.67.34.66-.34-.66M1271 1514l1 1-1-1m157.33.67.34.66-.34-.66M1697 1514l1 1-1-1m151 0 1 1-1-1m123 0 1 1-1-1m-1213 1 1 1-1-1m299 0 1 1-1-1m156 0 1 1-1-1m756.67.33.66.34-.66-.34M703 1516l1 1-1-1m54 0 1 1-1-1m513.33.67.34.66-.34-.66M1851 1516l1 1-1-1m117 0 1 1-1-1m-1212 1 1 1-1-1m302 0 1 1-1-1m56 0 1 1-1-1m100 0 1 1-1-1m215 0 1 1-1-1m266 0 1 1-1-1m158 0 1 1-1-1m113 0 1 1-1-1m-1211 1 1 1-1-1m939 0 1 1-1-1m160 0 1 1-1-1m110 0 1 1-1-1m-1259 1 1 1-1-1m49 0 1 1-1-1m305 0 1 1-1-1m54 0 1 1-1-1m156 0 1 1-1-1m161 0 1 1-1-1m263 0 1 1-1-1m163 0 1 1-1-1m105.67.33.66.34-.66-.34M753 1520l1 1-1-1m307 0 1 1-1-1m52 0 1 1-1-1m104 0 1 1-1-1m52 0 1 1-1-1m163 0 1 1-1-1m261 0 1 1-1-1m166 0 1 1-1-1m101 0 1 1-1-1m-1207 1 1 1-1-1m465 0 1 1-1-1m474 0 1 1-1-1m169 0 1 1-1-1m97 0 1 1-1-1m-1206 1 1 1-1-1m310 0 1 1-1-1m629 0 1 1-1-1m172 0 1 1-1-1m92.67.33.66.34-.66-.34M749 1523l1 1-1-1m313 0 1 1-1-1m48 0 1 1-1-1m156 0 1 1-1-1m167 0 1 1-1-1m256 0 1 1-1-1m175 0 1 1-1-1m88 0 1 1-1-1m-1204 1 1 1-1-1m315 0 1 1-1-1m46 0 1 1-1-1m156 0 1 1-1-1m169 0 1 1-1-1m253 0 1 1-1-1m180 0 1 1-1-1m82 0 1 1-1-1m-1238 1 1 1-1-1m35 0 1 1-1-1m318 0 1 1-1-1m44 0 1 1-1-1m156 0 1 1-1-1m171 0 1 1-1-1m251 0 1 1-1-1m183.67.33.66.34-.66-.34m77 0 .66.34-.66-.34M713 1526l1 1-1-1m31 0 1 1-1-1m321 0 1 1-1-1m42 0 1 1-1-1m156 0 1 1-1-1m173 0 1 1-1-1m436 0 1 1-1-1m70.67.33.66.34-.66-.34M714 1527l1 1-1-1m28 0 1 1-1-1m324 0 1 1-1-1m39 0 1 1-1-1m157 0 1 1-1-1m421 0 1 1-1-1m192.67.33.66.34-.66-.34m64 0 .66.34-.66-.34m-1223.003 1 .666.34-.666-.34m23 0 .666.34-.666-.34M1067 1528l1 1-1-1m37 0 1 1-1-1m120 0 1 1-1-1m215 0 1 1-1-1m242 0 1 1-1-1m198.67.33.66.34-.66-.34m56 0 .66.34-.66-.34m-1216.003 1 .666.34-.666-.34m17 0 .666.34-.666-.34M1069 1529l1 1-1-1m157 0 1 1-1-1m33 0 1 1-1-1m181 0 1 1-1-1m239 0 1 1-1-1m204.67.33.66.34-.66-.34m45.33-.33v1h4l-4-1m-1205 1v1h9l-9-1m377 0 1 1-1-1m126 0 1 1-1-1m30 0 1 1-1-1m185.67.33.66.34-.66-.34m234 0 .66.34-.66-.34m212 0 .66.34-.66-.34m34.33-.33v1h4l-4-1m-851 1 1 1-1-1m27 0 1 1-1-1m130.67.33.66.34-.66-.34m25.33-.33 1 1-1-1m190.67.33.66.34-.66-.34m227 0 .66.34-.66-.34M1895 1531v1h8l-8-1m15 0v1h8l-8-1m-835.33 1.33.66.34-.66-.34m21 0 .66.34-.66-.34m137 0 .66.34-.66-.34m20.33-.33 1 1-1-1m197 0v1h218l-21-1h-197m-372.33 1.33.66.34-.66-.34m15 0 .66.34-.66-.34M1236 1533v1h3l-3-1m13 0v1h3l-3-1m-164 1 1 1-1-1m157 0 1 1-1-1m441 311c20.15-12.55 38.68-29.95 56-46.09 4.13-3.85 13.89-17.93 20-17.13 6.38.84 14.62 12.84 19 17.22 16.59 16.59 32.68 33.99 49.99 49.83 73.49 67.27 141.23 141.19 213.05 210.26 20.36 19.58 39.87 40.05 59.96 59.91 4.94 4.88 20.52 14.46 20.52 22 0 3.87-4.93 7.43-7.52 9.71-7.99 7.07-15.32 14.76-22.96 22.2-22.12 21.55-46.16 41.11-70.04 60.67-10.73 8.79-25.56 16.41-34 27.42 37.55-23.38 71.74-55.91 104-85.91 8.15-7.57 16.12-15.23 24-23.09 2.63-2.62 7.75-6.08 8.2-10.09.86-7.68-14.18-17.54-19.2-22.08-20.87-18.89-40.05-39.97-60-59.83-49.43-49.2-99.08-98.32-149-147.01-22.44-21.89-43.49-45.54-67-66.28-17.19-15.15-32.8-32.51-49-48.71-4.68-4.68-13.14-17.04-20-17.94-6.11-.8-14.97 12-18.96 15.85-17.32 16.65-42.57 30.23-57.04 49.09z"/><path style="fill:#f39120;stroke:none" d="M1757 1781.26c-6.63 2.1-13.07 11.98-18 16.7-12.98 12.41-26.96 24.05-41 35.24-4.59 3.66-17.77 10.17-17.62 16.81.15 7.05 9.97 15.39 13.78 20.99 13.92 20.45 29.13 40.2 43.94 60 52 69.47 105.26 139.27 154.06 211 21.51 31.61 44.78 62.42 67.71 93 5.22 6.96 10.13 14.14 15.48 21 2.14 2.75 4.58 6.85 8.65 5.84 10.09-2.49 21.76-15.73 30-21.97 27.56-20.87 54.17-43.88 79-67.91 7.67-7.41 15.14-14.92 23-22.13 2.57-2.36 6.82-5.85 6.03-9.83-1.41-7.04-12.08-13.48-17.03-18.09-15.48-14.42-30.04-29.95-45-44.91-58-58-118.88-113.52-175.29-173.09-30.88-32.61-63.96-63.16-95.71-94.91-7.33-7.33-14.62-14.72-22-22-2.45-2.41-6.03-7-10-5.74z"/><path style="fill:#23b372;stroke:none" d="M859.04 1813.08c-8.818 3.76-17.994 18.66-24.116 25.91-16.299 19.29-33.389 38.04-50.079 57.01l-185 210c-19.009 21.59-37.474 43.81-56.931 65-5.053 5.5-20.886 18.22-20.886 25.99 0 5.74 10.606 11.21 14.396 14.67 15.661 14.31 32.783 27.05 49.576 39.99 62.241 47.96 129.785 87.58 200 122.6 16.68 8.32 33.857 15.86 51 23.17 4.381 1.87 13.953 7.74 18.66 5.31 7.022-3.64 10.816-22.67 13.542-29.73 10.09-26.14 20.962-52.05 31.526-78 36.302-89.19 73.408-178.22 108.182-268 9.09-23.45 18.79-46.68 28.19-70 2.89-7.17 11.35-20.26 10.39-27.98-.55-4.49-6.03-5.7-9.49-7.25-10.05-4.52-19.94-9.42-30-13.91-38.889-17.33-76.318-41.59-109.985-67.52-9.145-7.05-18.13-14.2-27.015-21.59-3.06-2.54-7.514-7.56-11.96-5.67z"/><path style="fill:#9f9ea0;stroke:none" d="m1681 1845 1 1-1-1m-1 1 1 1-1-1m-1 1v5h1l-1-5m1 5 1 1-1-1m1 2 1 1-1-1m1 1 1 1-1-1m1.33 1.67.34.66-.34-.66m.67 1.33 1 1-1-1m1 1 1 1-1-1m1 1 2 3-2-3m2 3 3 4-3-4m3 4v2h2l-2-2m2.33 2.67.34.66-.34-.66m1 2 .34.66-.34-.66m.67 1.33 1 1-1-1m1 1 1 1-1-1m1.33 1.67.34.66-.34-.66m.67 1.33 1 1-1-1m1 1 1 1-1-1m1.33 1.67.34.66-.34-.66m.67 1.33 1 1-1-1m1 1 1 1-1-1m1.33 1.67.34.66-.34-.66m.67 1.33 1 1-1-1m1 1 2 3-2-3m2.33 3.67.34.66-.34-.66m.67 1.33 2 2v-2h-2m2.33 2.67.34.66-.34-.66m.67 1.33 2 2v-2h-2m2.33 2.67.34.66-.34-.66m.67 1.33 1 1-1-1m1 1 1 1-1-1m1.33 1.67.34.66-.34-.66m.67 1.33 1 1-1-1m1 1 1 1-1-1m1 1 1 1-1-1m1 2 1 1-1-1m1 1 1 1-1-1m1.33 1.67.34.66-.34-.66m.67 1.33 1 1-1-1m1.33 1.67.34.66-.34-.66m.67 1.33 1 1-1-1m1.33 1.67.34.66-.34-.66m.67 1.33 1 1-1-1m1 1 1 1-1-1m1 1 1 1-1-1m1.33 1.67.34.66-.34-.66m.67 1.33 1 1-1-1m1.33 1.67.34.66-.34-.66m.67 1.33 1 1-1-1m1 1v2h2l-2-2m2.33 2.67.34.66-.34-.66m.67 1.33v2h2l-2-2m2.33 2.67.34.66-.34-.66m.67 1.33 2 3-2-3m2 3 1 1-1-1m1.33 1.67.34.66-.34-.66m.67 1.33 1 1-1-1m1 1 1 1-1-1m1.33 1.67.34.66-.34-.66m.67 1.33 1 1-1-1m1 1 2 3-2-3z"/><path style="fill:#23b372;stroke:none" d="M1476 1947.52c-22.47 4.37-44.37 11.76-67 15.87-29.12 5.28-58.62 7.56-88 9.52-13.55.91-27.42.09-41 .09-4.48 0-12.82-1.51-16.4 1.86-4.97 4.68-2.6 20.85-2.6 27.14 0 23.34-1.49 47.61-3.09 71-3.69 53.92-3.31 108.09-7 162-3.21 46.86-7.58 95.02-6.88 141.99.38 25.99-.07 55.19-3.45 81.01-.85 6.41-4.56 25.36 1.22 29.68 4.91 3.67 17.3 1.32 23.2 1.32h62c89.77 0 184.53-15.19 271-39.63 6.78-1.92 27.33-4.37 30.88-10.76 2.89-5.2-3.57-18.31-5.22-23.61-6.84-21.92-12.78-44.15-19.82-66-30.44-94.4-56.54-190.27-85.74-285-9.33-30.29-18.15-60.74-27.59-91-2.29-7.33-3.9-27.54-14.51-25.48z"/><path style="fill:#9f9ea0;stroke:none" d="m1750 1948 3 4-3-4m3 4 3 4-3-4m3.33 4.67.34.66-.34-.66m.67 1.33 1 1-1-1m1 1 1 1-1-1m1.33 1.67.34.66-.34-.66m.67 1.33 1 1-1-1m1 1 1 1-1-1m1.33 1.67.34.66-.34-.66m.67 1.33 1 1-1-1m1 1 1 1-1-1m1.33 1.67.34.66-.34-.66m.67 1.33 1 1-1-1m1 1 2 3-2-3m2 3 1 1-1-1m1.33 1.67.34.66-.34-.66m.67 1.33 1 1-1-1m1.33 1.67.34.66-.34-.66m.67 1.33 1 1-1-1m1 1 1 1-1-1m1.33 1.67.34.66-.34-.66m.67 1.33 1 1-1-1m1 1 1 1-1-1m1 1 1 1-1-1m1.33 1.67.34.66-.34-.66m.67 1.33 2 3-2-3m2 3 1 1-1-1m1 1 2 3-2-3m2 3 1 1-1-1m1.33 1.67.34.66-.34-.66m.67 1.33 1 1-1-1m1 1 1 1-1-1m1.33 1.67.34.66-.34-.66m.67 1.33 1 1-1-1m1 1 1 1-1-1m1.33 1.67.34.66-.34-.66m.67 1.33 1 1-1-1m1 1 2 3-2-3m2 3 3 4-3-4m3 4 3 4-3-4m3.33 4.67.34.66-.34-.66m.67 1.33 1 1-1-1m1 1 1 1-1-1m1 1 1 1-1-1m1.33 1.67.34.66-.34-.66m.67 1.33 1 1-1-1m1 1 1 1-1-1m1.33 1.67.34.66-.34-.66m.67 1.33 2 3-2-3m2 3 1 1-1-1m1.33 1.67.34.66-.34-.66m.67 1.33 1 1-1-1m1 1 1 1-1-1m1.33 1.67.34.66-.34-.66m.67 1.33 2 2v-2h-2m2.33 2.67.34.66-.34-.66m.67 1.33 1 1-1-1m1 1 1 1-1-1m1.33 1.67.34.66-.34-.66m.67 1.33 1 1-1-1m1 1 1 1-1-1m1.33 1.67.34.66-.34-.66m.67 1.33 1 1-1-1m1 1 2 3-2-3m2.33 3.67.34.66-.34-.66m.67 1.33 1 1-1-1m1 1 1 1-1-1m1 1 1 1-1-1m1 2 1 1-1-1m1 1 1 1-1-1m1 1 1 1-1-1m1.33 1.67.34.66-.34-.66m.67 1.33 1 1-1-1m1.33 1.67.34.66-.34-.66m.67 1.33 1 1-1-1m1 1 1 1-1-1m1 1 1 1-1-1m1.33 1.67.34.66-.34-.66m.67 1.33 3 4-3-4m3 4 2 3-2-3m2 3 1 1-1-1m1.33 1.67.34.66-.34-.66m.67 1.33 1 1-1-1m1 1 1 1-1-1m1.33 1.67.34.66-.34-.66m.67 1.33 1 1-1-1m1 1 1 1-1-1m1.33 1.67.34.66-.34-.66m.67 1.33 1 1-1-1m1 1 1 1-1-1m1.33 1.67.34.66-.34-.66m.67 1.33v2h2l-2-2m2.33 2.67.34.66-.34-.66m.67 1.33 3 4-3-4m3 4 2 3-2-3m2 3 1 1-1-1m1 1 1 1-1-1m1 2 1 1-1-1m1 1 1 1-1-1m1 1 1 1-1-1m1 2 1 1-1-1m1 1 1 1-1-1m1.33 1.67.34.66-.34-.66m.67 1.33 1 1-1-1m1 1 3 4-3-4m3 4 2 3-2-3m2 3 1 1-1-1m1.33 1.67.34.66-.34-.66m.67 1.33 1 1-1-1m1 1 2 3-2-3m2 3 1 1-1-1m1 1 1 1-1-1m1.33 1.67.34.66-.34-.66m.67 1.33 1 1-1-1m1 1 1 1-1-1m1.33 1.67.34.66-.34-.66m1 2 .34.66-.34-.66m.67 1.33 1 1-1-1m1 1 1 1-1-1m1.33 1.67.34.66-.34-.66m.67 1.33 1 1-1-1m1 1 1 1-1-1m1.33 1.67.34.66-.34-.66m.67 1.33 1 1-1-1m1 1 1 1-1-1m1.33 1.67.34.66-.34-.66m.67 1.33 1 1-1-1m1 1 1 1-1-1m1.33 1.67.34.66-.34-.66m1 2 .34.66-.34-.66m.67 1.33 2 2v-2h-2m2.33 2.67.34.66-.34-.66m.67 1.33 1 1-1-1m1 1 1 1-1-1m1.33 1.67.34.66-.34-.66m.67 1.33 1 1-1-1m1 1 1 1-1-1m1.33 1.67.34.66-.34-.66m.67 1.33 1 1-1-1m1 1 1 1-1-1m1.33 1.67.34.66-.34-.66m.67 1.33 1 1-1-1m1 1 1 1-1-1m1.33 1.67.34.66-.34-.66m1 2 .34.66-.34-.66m.67 1.33 1 1-1-1m1 1 1 1-1-1m1.33 1.67.34.66-.34-.66m.67 1.33 1 1-1-1m1 1 1 1-1-1m1.33 1.67.34.66-.34-.66m.67 1.33 1 1-1-1m1 1 1 1-1-1m1 1 2 3-2-3m2 3 2 3-2-3m2 3 1 1-1-1m1 1 2 3-2-3m2 3 1 1-1-1m1.33 1.67.34.66-.34-.66m.67 1.33 1 1-1-1m1 1 1 1-1-1m1.33 1.67.34.66-.34-.66m.67 1.33 1 1-1-1m1 1 1 1-1-1m1 2 1 1-1-1m1 1 1 1-1-1m1 1 1 1-1-1m1.33 1.67.34.66-.34-.66m.67 1.33 3 4-3-4m3.33 4.67.34.66-.34-.66m.67 1.33 1 1-1-1m1 1 1 1-1-1m1.33 1.67.34.66-.34-.66m.67 1.33 1 1-1-1m1 1 1 1-1-1m1.33 1.67.34.66-.34-.66m.67 1.33 1 1-1-1m1 1 1 1-1-1m1.33 1.67.34.66-.34-.66m.67 1.33 1 1-1-1m1 1 1 1-1-1m1.33 1.67.34.66-.34-.66m.67 1.33 1 1-1-1m1 1 2 3-2-3m2 3 1 1-1-1m1.33 1.67.34.66-.34-.66m.67 1.33 1 1-1-1m1.33 1.67.34.66-.34-.66m.67 1.33 1 1-1-1m1 1 1 1-1-1m1 1 1 1-1-1m1.33 1.67.34.66-.34-.66m.67 1.33 1 1-1-1m1 1 2 3-2-3m2 3 3 3-3-3m7 1 1 1-1-1m-4 2v1l4-1h-4z"/></svg>